<?xml version="1.0" standalone="no"?>
<!DOCTYPE svg PUBLIC "-//W3C//DTD SVG 20010904//EN"
 "http://www.w3.org/TR/2001/REC-SVG-20010904/DTD/svg10.dtd">
<svg version="1.0"
    xmlns="http://www.w3.org/2000/svg" width="956.000000pt" height="957.000000pt" viewBox="0 0 956.000000 957.000000" preserveAspectRatio="xMidYMid meet">

    <g transform="translate(0.000000,957.000000) scale(0.100000,-0.100000)" fill="#FFFFFF" stroke="none">
        <path d="M4470 9224 c-481 -62 -767 -140 -1270 -348 -206 -85 -639 -297 -828
-405 -394 -227 -721 -492 -1051 -856 -255 -281 -252 -276 -137 -239 198 63
403 88 657 81 265 -7 411 -39 639 -139 147 -64 209 -98 525 -286 143 -85 382
-227 530 -315 149 -88 362 -215 475 -282 443 -265 638 -335 928 -335 200 1
403 48 600 142 149 71 309 179 295 201 -3 5 -2 7 4 4 13 -8 48 17 48 35 0 7 5
13 12 13 15 0 28 13 28 28 0 7 5 12 12 12 14 0 28 13 28 28 1 7 6 11 13 10 16
-4 103 106 95 120 -3 7 -2 9 2 4 11 -9 86 103 78 117 -3 6 -3 8 2 4 15 -14
111 164 99 183 -4 7 -3 9 3 6 13 -8 47 68 38 84 -5 7 -4 10 2 6 12 -8 26 20
17 34 -3 5 -1 9 4 9 24 0 88 261 102 410 38 412 -107 780 -444 1128 -364 376
-746 539 -1286 547 -102 2 -201 1 -220 -1z m560 -1098 c185 -65 352 -211 439
-381 86 -169 82 -391 -10 -564 -132 -247 -310 -371 -580 -402 -112 -13 -182
-4 -287 36 -119 45 -154 68 -247 160 -77 76 -98 105 -138 185 -123 247 -97
489 76 717 89 118 260 232 404 268 90 23 249 14 343 -19z"/>
        <path d="M6395 8852 c16 -20 42 -53 60 -72 40 -43 123 -153 154 -203 12 -20
28 -37 33 -37 6 0 9 -3 5 -6 -7 -7 51 -115 67 -126 6 -4 8 -8 4 -8 -10 0 12
-60 23 -60 4 0 5 -7 2 -17 -5 -12 -3 -14 7 -8 8 5 11 4 7 -2 -6 -10 20 -103
32 -113 3 -3 6 -12 6 -20 2 -43 19 -119 26 -115 4 3 5 -10 2 -30 -3 -19 -1
-35 4 -35 5 0 9 -19 9 -42 0 -24 0 -150 2 -280 l2 -238 735 0 c404 0 735 4
735 9 0 10 -325 358 -429 459 -163 158 -357 316 -527 430 -198 132 -745 442
-918 521 l-68 31 27 -38z"/>
        <path d="M1420 7000 c-123 -9 -376 -55 -475 -87 -98 -31 -123 -51 -197 -163
-39 -58 -103 -172 -144 -255 -170 -348 -264 -654 -338 -1095 -26 -154 -46
-657 -28 -702 12 -29 29 -6 61 80 95 258 256 495 503 744 167 168 347 284 614
397 315 133 593 191 908 191 182 0 276 -13 436 -60 225 -67 230 -70 1210 -622
529 -298 581 -327 1115 -613 182 -98 375 -203 430 -235 55 -31 188 -104 295
-160 107 -57 273 -148 368 -202 247 -141 511 -272 627 -312 183 -62 241 -71
445 -71 175 0 192 2 313 33 297 74 599 246 838 474 103 98 201 216 193 231 -4
7 -4 9 1 5 13 -12 121 141 110 155 -3 4 -2 5 1 2 11 -8 76 104 68 116 -4 7 -3
9 3 6 12 -8 46 61 37 75 -4 6 -2 8 3 5 13 -8 26 20 16 35 -3 6 -1 8 4 5 12 -8
26 20 17 34 -3 5 -1 9 5 9 6 0 7 7 4 17 -4 10 -2 14 4 10 14 -9 88 193 117
323 37 162 46 237 46 395 0 297 -78 604 -232 910 -84 167 -126 238 -174 293
l-29 32 -910 0 c-864 1 -910 0 -913 -17 -6 -33 -64 -167 -125 -288 -95 -191
-182 -311 -336 -465 -150 -150 -225 -209 -381 -302 -365 -218 -684 -308 -1040
-295 -243 10 -421 56 -657 171 -137 67 -190 97 -708 401 -170 100 -425 249
-565 331 -140 81 -304 177 -365 212 -250 146 -389 200 -610 238 -111 19 -398
26 -565 14z"/>
        <path d="M2140 5633 c-404 -39 -695 -167 -985 -433 -274 -251 -449 -513 -555
-830 -156 -468 -130 -871 87 -1360 82 -185 253 -471 314 -526 19 -17 46 -20
247 -27 125 -4 519 -6 877 -5 l650 3 51 145 c73 209 178 389 353 599 141 171
285 281 528 404 303 153 585 215 927 204 146 -4 189 -10 293 -36 282 -71 406
-134 1168 -593 187 -113 385 -233 440 -268 230 -144 615 -348 743 -394 193
-69 397 -91 682 -75 134 8 434 55 492 78 32 12 60 45 171 199 244 337 357 579
456 977 79 316 111 516 131 820 5 83 13 180 16 218 8 81 -7 90 -31 18 -101
-304 -331 -642 -575 -846 -438 -364 -1026 -567 -1522 -525 -245 20 -439 72
-651 173 -62 30 -335 178 -607 329 -452 251 -595 329 -1045 571 -82 44 -256
140 -385 212 -129 73 -316 176 -415 230 -182 99 -392 215 -677 376 -337 190
-538 285 -688 324 -136 35 -350 52 -490 38z"/>
        <path d="M4318 3345 c-124 -20 -187 -40 -326 -106 -251 -118 -468 -324 -615
-583 -110 -193 -187 -474 -187 -681 0 -72 27 -256 55 -380 56 -241 212 -498
454 -749 258 -266 581 -428 961 -482 157 -22 528 -15 718 15 271 42 619 142
947 273 177 71 525 238 680 327 229 131 527 341 715 502 154 132 480 484 480
518 0 9 -7 11 -22 7 -13 -3 -129 -9 -258 -12 -516 -15 -750 50 -1305 363 -617
348 -883 501 -1045 601 -312 193 -463 270 -664 339 -180 61 -390 78 -588 48z
m120 -490 c120 -36 192 -132 200 -267 4 -72 2 -83 -27 -143 -54 -109 -128
-159 -257 -172 -147 -15 -324 134 -324 273 0 71 35 166 81 218 45 51 59 60
134 87 62 23 125 24 193 4z"/>
        <path d="M2733 2009 c-7 -7 -214 -12 -659 -15 -718 -5 -774 -7 -774 -31 0 -23
456 -475 570 -565 445 -352 706 -509 1225 -740 232 -103 254 -112 261 -105 3
3 -26 38 -64 78 -85 90 -99 107 -194 234 -229 306 -337 628 -338 1005 0 127
-7 159 -27 139z"/>
    </g>
</svg>
